<svg id="visual" viewBox="0 0 900 600" width="900" height="600" xmlns="http://www.w3.org/2000/svg" xmlns:xlink="http://www.w3.org/1999/xlink" version="1.1"><rect x="0" y="0" width="900" height="600" fill="#001220"></rect><defs><linearGradient id="grad1_0" x1="33.3%" y1="0%" x2="100%" y2="100%"><stop offset="20%" stop-color="#001220" stop-opacity="1"></stop><stop offset="80%" stop-color="#001220" stop-opacity="1"></stop></linearGradient></defs><defs><linearGradient id="grad2_0" x1="0%" y1="0%" x2="66.7%" y2="100%"><stop offset="20%" stop-color="#001220" stop-opacity="1"></stop><stop offset="80%" stop-color="#001220" stop-opacity="1"></stop></linearGradient></defs><g transform="translate(900, 0)"><path d="M0 486.7C-68 484 -135.9 481.2 -186.3 449.7C-236.6 418.2 -269.4 357.9 -310.4 310.4C-351.4 263 -400.7 228.3 -431.5 178.7C-462.2 129.1 -474.5 64.6 -486.7 0L0 0Z" fill="#FBAE3C"></path></g><g transform="translate(0, 600)"><path d="M0 -486.7C68 -481.4 136.1 -476.1 183.3 -442.5C230.6 -409 257 -347.1 303.3 -303.3C349.7 -259.6 415.8 -233.8 449.7 -186.3C483.6 -138.7 485.2 -69.4 486.7 0L0 0Z" fill="#FBAE3C"></path></g></svg>