<svg id="visual" viewBox="0 0 1400 800" width="1400" height="800" xmlns="http://www.w3.org/2000/svg" xmlns:xlink="http://www.w3.org/1999/xlink" version="1.1"><rect x="0" y="0" width="1400" height="800" fill="#001220"></rect><path d="M0 421L23.3 438.7C46.7 456.3 93.3 491.7 140 484.7C186.7 477.7 233.3 428.3 280 403.7C326.7 379 373.3 379 420 404.5C466.7 430 513.3 481 560 503.3C606.7 525.7 653.3 519.3 700 515C746.7 510.7 793.3 508.3 840 482.5C886.7 456.7 933.3 407.3 980 381.8C1026.7 356.3 1073.3 354.7 1120 358.2C1166.7 361.7 1213.3 370.3 1260 394.2C1306.7 418 1353.3 457 1376.7 476.5L1400 496L1400 801L1376.7 801C1353.3 801 1306.7 801 1260 801C1213.3 801 1166.7 801 1120 801C1073.3 801 1026.7 801 980 801C933.3 801 886.7 801 840 801C793.3 801 746.7 801 700 801C653.3 801 606.7 801 560 801C513.3 801 466.7 801 420 801C373.3 801 326.7 801 280 801C233.3 801 186.7 801 140 801C93.3 801 46.7 801 23.3 801L0 801Z" fill="#fa7268"></path><path d="M0 547L23.3 530.5C46.7 514 93.3 481 140 479.2C186.7 477.3 233.3 506.7 280 509C326.7 511.3 373.3 486.7 420 480C466.7 473.3 513.3 484.7 560 515.5C606.7 546.3 653.3 596.7 700 588.3C746.7 580 793.3 513 840 496C886.7 479 933.3 512 980 517.2C1026.7 522.3 1073.3 499.7 1120 487.5C1166.7 475.3 1213.3 473.7 1260 478C1306.7 482.3 1353.3 492.7 1376.7 497.8L1400 503L1400 801L1376.7 801C1353.3 801 1306.7 801 1260 801C1213.3 801 1166.7 801 1120 801C1073.3 801 1026.7 801 980 801C933.3 801 886.7 801 840 801C793.3 801 746.7 801 700 801C653.3 801 606.7 801 560 801C513.3 801 466.7 801 420 801C373.3 801 326.7 801 280 801C233.3 801 186.7 801 140 801C93.3 801 46.7 801 23.3 801L0 801Z" fill="#eb5967"></path><path d="M0 628L23.3 626.2C46.7 624.3 93.3 620.7 140 607.2C186.7 593.7 233.3 570.3 280 572.3C326.7 574.3 373.3 601.7 420 620.2C466.7 638.7 513.3 648.3 560 640.2C606.7 632 653.3 606 700 588.2C746.7 570.3 793.3 560.7 840 573.7C886.7 586.7 933.3 622.3 980 643.3C1026.7 664.3 1073.3 670.7 1120 660.8C1166.7 651 1213.3 625 1260 616C1306.7 607 1353.3 615 1376.7 619L1400 623L1400 801L1376.7 801C1353.3 801 1306.7 801 1260 801C1213.3 801 1166.7 801 1120 801C1073.3 801 1026.7 801 980 801C933.3 801 886.7 801 840 801C793.3 801 746.7 801 700 801C653.3 801 606.7 801 560 801C513.3 801 466.7 801 420 801C373.3 801 326.7 801 280 801C233.3 801 186.7 801 140 801C93.3 801 46.7 801 23.3 801L0 801Z" fill="#da3f67"></path><path d="M0 688L23.3 686C46.7 684 93.3 680 140 676.2C186.7 672.3 233.3 668.7 280 665C326.7 661.3 373.3 657.7 420 650.7C466.7 643.7 513.3 633.3 560 637.7C606.7 642 653.3 661 700 676.2C746.7 691.3 793.3 702.7 840 714C886.7 725.3 933.3 736.7 980 732.3C1026.7 728 1073.3 708 1120 688.3C1166.7 668.7 1213.3 649.3 1260 654.2C1306.7 659 1353.3 688 1376.7 702.5L1400 717L1400 801L1376.7 801C1353.3 801 1306.7 801 1260 801C1213.3 801 1166.7 801 1120 801C1073.3 801 1026.7 801 980 801C933.3 801 886.7 801 840 801C793.3 801 746.7 801 700 801C653.3 801 606.7 801 560 801C513.3 801 466.7 801 420 801C373.3 801 326.7 801 280 801C233.3 801 186.7 801 140 801C93.3 801 46.7 801 23.3 801L0 801Z" fill="#c62368"></path></svg>